# xmcd
#
# Track frame offsets: 
#        150
#        17380
#        36724
#        63454
#        88482
#        106078
#        131671
#        149926
#        174690
#        204440
#        222592
#        241182
#        264354
#        280171
#        299822
#        315720
#        340092
#
# Disc length: 4782 seconds
#
# Revision: 0
# Processed by: cddbd v1.5.2PL0 Copyright (c) Steve Scherf et al.
# Submitted via: ExactAudioCopy v1.0b3
#
DISCID=1812ac11
DTITLE=Various Artist - Akella Presents - vol.34 - Electric Blues  CD
DTITLE=2
DYEAR=2013
DGENRE=Blues
TTITLE0=Don Dixon - I've Had Enough
TTITLE1=Bill Deraime - Chaque matin
TTITLE2=Yungjohnn - Oobe
TTITLE3=James Hinkle - Fall Of A Lifetime
TTITLE4=Calvin Russel - One Meat Ball
TTITLE5=Pat Ramsey - Broken Hearted
TTITLE6=Eric Street Band - Politicians Lament
TTITLE7=Zach Day and Full Throttle - Midnight Blues
TTITLE8=Too Slim and the Taildraggers - My Load
TTITLE9=Paul Wood - Take My Time
TTITLE10=Beggi Smari - No Sense
TTITLE11=Working Blues Band - You Where Late Last Night
TTITLE12=The Most Southern Blues Band - Semper Fi (There for You)
TTITLE13=Barry Levenson and Jake Sampson - Shadows Of Midnight
TTITLE14=Louie Blue - Young Love
TTITLE15=Anders Osborne - Snake Bit
TTITLE16=Mighty Mo Rodgers - Blues Is a Woman Woe Is A Man
EXTD=
EXTT0=
EXTT1=
EXTT2=
EXTT3=
EXTT4=
EXTT5=
EXTT6=
EXTT7=
EXTT8=
EXTT9=
EXTT10=
EXTT11=
EXTT12=
EXTT13=
EXTT14=
EXTT15=
EXTT16=
PLAYORDER=
